{"title":"That Metal Show S13E04 HDTV 1080p (Ted Nugent)","uid":11559350,"size":1831303625,"categoryP":"video","categoryS":"hd___tv_shows","magnet":"?xt=urn:btih:cc1a8652cd3660942365199b92d82ab7a1c2b297&amp;dn=That+Metal+Show+S13E04+HDTV+1080p+%28Ted+Nugent%29&amp;tr=udp%3A%2F%2Ftracker.openbittorrent.com%3A80&amp;tr=udp%3A%2F%2Fopen.demonii.com%3A1337&amp;tr=udp%3A%2F%2Ftracker.coppersurfer.tk%3A6969&amp;tr=udp%3A%2F%2Fexodus.desync.com%3A6969","seeders":1,"leechers":0,"uploader":"NotHuman","files":-1,"time":1416863274,"description":"Episodes of That Metal Show are finally being broadcast in HD on the Palladia channel.  Here is season 13 episode 4.  The guest is Ted Nugent with guest guitarist Gary Hoey.\n\nThis video was captured directly from a digital cable box's HDMI output to MPEG4 in 1080i using a Game Capture HD and an HDMI splitter to remove HDCP.  HandBrake 0.9.9.5530 was then used to perform de-interlacing and reduction of the file size (without sacrificing much quality).  See below for complete technical specs on the video.\n\nScreenshots:\n &lt;a href=&quot;\nhttp://postimg.org/image/zbw3tc1r1/&quot; rel=&quot;nofollow&quot; target=&quot;_NEW&quot;&gt;\nhttp://postimg.org/image/zbw3tc1r1/&lt;/a&gt;\n &lt;a href=&quot;\nhttp://postimg.org/image/kwe6ufopp/&quot; rel=&quot;nofollow&quot; target=&quot;_NEW&quot;&gt;\nhttp://postimg.org/image/kwe6ufopp/&lt;/a&gt;\n &lt;a href=&quot;\nhttp://postimg.org/image/qjajrwr8d/&quot; rel=&quot;nofollow&quot; target=&quot;_NEW&quot;&gt;\nhttp://postimg.org/image/qjajrwr8d/&lt;/a&gt;\n &lt;a href=&quot;\nhttp://postimg.org/image/5vbwd65zx/&quot; rel=&quot;nofollow&quot; target=&quot;_NEW&quot;&gt;\nhttp://postimg.org/image/5vbwd65zx/&lt;/a&gt;\n &lt;a href=&quot;\nhttp://postimg.org/image/6ell06msd/&quot; rel=&quot;nofollow&quot; target=&quot;_NEW&quot;&gt;\nhttp://postimg.org/image/6ell06msd/&lt;/a&gt;\n &lt;a href=&quot;\nhttp://postimg.org/image/b9aokpvq5/&quot; rel=&quot;nofollow&quot; target=&quot;_NEW&quot;&gt;\nhttp://postimg.org/image/b9aokpvq5/&lt;/a&gt;\n &lt;a href=&quot;\nhttp://postimg.org/image/tz79f7dul/&quot; rel=&quot;nofollow&quot; target=&quot;_NEW&quot;&gt;\nhttp://postimg.org/image/tz79f7dul/&lt;/a&gt;\n\n\nMediaInfo:\n\nGeneral\nComplete name                            : D:uploadsThat Metal Show S13E04 HDTV 1080pThat Metal Show S13E04 HDTV 1080p.mp4\nFormat                                   : MPEG-4\nFormat profile                           : Base Media / Version 2\nCodec ID                                 : mp42\nFile size                                : 1.69 GiB\nDuration                                 : 43mn 43s\nOverall bit rate mode                    : Variable\nOverall bit rate                         : 5 537 Kbps\nMovie name                               : That Metal Show\nDescription                              : Description here.\nRecorded date                            : 2014-11-23\nEncoded date                             : UTC 2014-11-24 14:12:19\nTagged date                              : UTC 2014-11-24 15:39:18\nWriting application                      : HandBrake 0.9.9 2013052900\n\nVideo\nID                                       : 1\nFormat                                   : AVC\nFormat/Info                              : Advanced Video Codec\nFormat profile                           : &lt;a class=&quot;__cf_email__&quot; href=&quot;/cdn-cgi/l/email-protection&quot; data-cfemail=&quot;5e163739361e126a706f&quot;&gt;[email&amp;#160;protected]&lt;/a&gt;&lt;script cf-hash='f9e31' type=&quot;text/javascript&quot;&gt;\n/* &lt;![CDATA[ */!function(){try{var t=&quot;currentScript&quot;in document?document.currentScript:function(){for(var t=document.getElementsByTagName(&quot;script&quot;),e=t.length;e--;)if(t[e].getAttribute(&quot;cf-hash&quot;))return t[e]}();if(t&amp;&amp;t.previousSibling){var e,r,n,i,c=t.previousSibling,a=c.getAttribute(&quot;data-cfemail&quot;);if(a){for(e=&quot;&quot;,r=parseInt(a.substr(0,2),16),n=2;a.length-n;n+=2)i=parseInt(a.substr(n,2),16)^r,e+=String.fromCharCode(i);e=document.createTextNode(e),c.parentNode.replaceChild(e,c)}}}catch(u){}}();/* ]]&gt; */&lt;/script&gt;\nFormat settings, CABAC                   : Yes\nFormat settings, ReFrames                : 4 frames\nCodec ID                                 : avc1\nCodec ID/Info                            : Advanced Video Coding\nDuration                                 : 43mn 43s\nBit rate                                 : 5 208 Kbps\nWidth                                    : 1 920 pixels\nHeight                                   : 1 080 pixels\nDisplay aspect ratio                     : 16:9\nOriginal display aspect ratio            : 16:9\nFrame rate mode                          : Variable\nFrame rate                               : 29.970 fps\nMinimum frame rate                       : 8.762 fps\nMaximum frame rate                       : 59.960 fps\nColor space                              : YUV\nChroma subsampling                       : 4:2:0\nBit depth                                : 8 bits\nScan type                                : Progressive\nBits/(Pixel*Frame)                       : 0.084\nStream size                              : 1.59 GiB (94%)\nWriting library                          : x264 core 130 r2273 b3065e6\nEncoding settings                        : cabac=1 / ref=4 / deblock=1:0:0 / analyse=0x3:0x113 / me=umh / subme=8 / psy=1 / psy_rd=1.00:0.00 / mixed_ref=1 / me_range=16 / chroma_me=1 / trellis=1 / 8x8dct=1 / cqm=0 / deadzone=21,11 / fast_pskip=1 / chroma_qp_offset=-2 / threads=12 / lookahead_threads=2 / sliced_threads=0 / nr=0 / decimate=1 / interlaced=0 / bluray_compat=0 / constrained_intra=0 / bframes=3 / b_pyramid=2 / b_adapt=2 / b_bias=0 / direct=3 / weightb=1 / open_gop=0 / weightp=2 / keyint=600 / keyint_min=60 / scenecut=40 / intra_refresh=0 / rc_lookahead=50 / rc=crf / mbtree=1 / crf=20.0 / qcomp=0.60 / qpmin=0 / qpmax=69 / qpstep=4 / vbv_maxrate=62500 / vbv_bufsize=78125 / crf_max=0.0 / nal_hrd=none / ip_ratio=1.40 / aq=1:1.00\nEncoded date                             : UTC 2014-11-24 14:12:19\nTagged date                              : UTC 2014-11-24 15:39:18\nColor primaries                          : BT.709\nTransfer characteristics                 : BT.709\nMatrix coefficients                      : BT.709\n\nAudio\nID                                       : 2\nFormat                                   : AAC\nFormat/Info                              : Advanced Audio Codec\nFormat profile                           : LC\nCodec ID                                 : 40\nDuration                                 : 43mn 43s\nBit rate mode                            : Variable\nBit rate                                 : 323 Kbps\nMaximum bit rate                         : 389 Kbps\nChannel(s)                               : 2 channels\nChannel positions                        : Front: L R\nSampling rate                            : 48.0 KHz\nCompression mode                         : Lossy\nStream size                              : 101 MiB (6%)\nLanguage                                 : English\nEncoded date                             : UTC 2014-11-24 14:12:19\nTagged date                              : UTC 2014-11-24 15:39:17","torrent":{"xt":"urn:btih:cc1a8652cd3660942365199b92d82ab7a1c2b297","amp;dn":"That+Metal+Show+S13E04+HDTV+1080p+%28Ted+Nugent%29","amp;tr":["udp%3A%2F%2Ftracker.openbittorrent.com%3A80","udp%3A%2F%2Fopen.demonii.com%3A1337","udp%3A%2F%2Ftracker.coppersurfer.tk%3A6969","udp%3A%2F%2Fexodus.desync.com%3A6969"],"infoHash":"cc1a8652cd3660942365199b92d82ab7a1c2b297","infoHashBuffer":{"type":"Buffer","data":[204,26,134,82,205,54,96,148,35,101,25,155,146,216,42,183,161,194,178,151]},"announce":[],"urlList":[]}}